<?xml version="1.0" encoding="utf-8"?>
<!-- Generator: Adobe Illustrator 25.3.1, SVG Export Plug-In . SVG Version: 6.00 Build 0)  -->
<svg version="1.1" id="Layer_1" xmlns="http://www.w3.org/2000/svg" xmlns:xlink="http://www.w3.org/1999/xlink" x="0px" y="0px"
	 viewBox="0 0 340.16 340.16" style="enable-background:new 0 0 340.16 340.16;" xml:space="preserve">
<style type="text/css">
	.st0{fill:#FFFFFF;}
</style>
<g>
	<path class="st0" d="M178.44,143.06c6.68,2.09,11.54,4.72,16.5,4.93c11.04,0.47,20.09,3.87,27.53,12.36
		c7.96,9.09,16.57,10.46,26.52,3.62c7.75-5.33,14.41-12.23,21.57-18.42c4.65-4.03,8.99-8.51,14.05-11.94
		c8.91-6.05,17.02-3.99,23.01,5.12c6.88,10.47,8.83,22.47,9.55,34.5c1.58,26.43-1.5,52.6-7.88,78.18
		c-7.69,30.83-30.14,49.02-57.44,61.77c-33.09,15.45-68.2,18.38-104.14,14.81c-29.62-2.95-57.65-10.73-82.35-27.94
		c-37.87-26.4-42.86-76.6-10.67-109.92c15.52-16.07,26.83-33.98,31.27-56.14c2.93-14.59,0.6-28.48-2.37-42.77
		c-8.31-39.99,23.48-78.58,64.09-80.05c33.88-1.23,61.35,21.96,69.13,50.31c8.26,30.12-4.4,60.81-32.61,77.82
		C183,140.02,181.86,140.82,178.44,143.06z M130.55,55.34c-0.16-5.87-5.81-11.22-11.62-11.03c-6.11,0.21-11.16,5.59-10.87,11.58
		c0.27,5.6,5.59,10.76,11.11,10.78C124.9,66.69,130.71,60.91,130.55,55.34z"/>
	<path class="st0" d="M45.15,96.36c-1.98-3.13-3.73-5.79-5.36-8.51c-5.43-9.05-11.16-17.95-16.1-27.26
		c-2.4-4.51-2.36-9.85,1.96-13.7c4.4-3.92,9.18-2.46,13.83-0.05c5.02,2.6,10.09,5.08,15.12,7.67c6.76,3.49,13.39,4.46,19.83-0.76
		c0.53-0.43,1.24-0.69,1.91-0.87c0.36-0.1,0.81,0.14,2.07,0.41c-8.76,20.35-6.25,40.84,1.07,62.26c-11.54,0-21.24,0.64-30.78-0.29
		c-4.24-0.42-8.9-3.27-12.07-6.36c-4.98-4.84-3.1-9.26,3.71-10.77C41.66,97.83,42.9,97.19,45.15,96.36z"/>
</g>
<g>
	<g>
		<path class="st0" d="M754.11,320.32c-106.82,0-213.59,0-320.32,0c0-106.82,0-213.59,0-320.32c106.82,0,213.59,0,320.32,0
			C754.11,106.82,754.11,213.59,754.11,320.32z M602.44,132.95c3.42-2.24,4.56-3.05,5.76-3.77c28.21-17.01,40.87-47.7,32.61-77.82
			c-7.78-28.35-35.24-51.54-69.13-50.31c-40.61,1.47-72.4,40.07-64.09,80.05c2.97,14.28,5.3,28.18,2.37,42.77
			c-4.44,22.16-15.75,40.08-31.27,56.14c-32.2,33.32-27.21,83.52,10.67,109.92c24.7,17.21,52.72,24.99,82.35,27.94
			c35.94,3.58,71.05,0.64,104.14-14.81c27.3-12.75,49.76-30.94,57.44-61.77c6.38-25.58,9.46-51.75,7.88-78.18
			c-0.72-12.03-2.67-24.03-9.55-34.5c-5.99-9.11-14.1-11.17-23.01-5.12c-5.06,3.43-9.4,7.92-14.05,11.94
			c-7.15,6.19-13.82,13.1-21.57,18.42c-9.95,6.84-18.56,5.47-26.52-3.62c-7.44-8.49-16.49-11.89-27.53-12.36
			C613.98,137.67,609.12,135.04,602.44,132.95z M469.15,86.24c-2.25,0.84-3.49,1.47-4.82,1.77c-6.81,1.51-8.69,5.93-3.71,10.77
			c3.17,3.08,7.83,5.94,12.07,6.36c9.54,0.94,19.24,0.29,30.78,0.29c-7.33-21.42-9.83-41.91-1.07-62.26
			c-1.26-0.27-1.71-0.5-2.07-0.41c-0.67,0.18-1.38,0.44-1.91,0.87c-6.43,5.22-13.06,4.25-19.83,0.76
			c-5.02-2.59-10.1-5.07-15.12-7.67c-4.65-2.41-9.43-3.86-13.83,0.05c-4.32,3.84-4.35,9.18-1.96,13.7
			c4.94,9.31,10.66,18.21,16.1,27.26C465.42,80.45,467.17,83.11,469.15,86.24z"/>
		<path d="M602.44,132.95c6.68,2.09,11.54,4.72,16.5,4.93c11.04,0.47,20.09,3.87,27.53,12.36c7.96,9.09,16.57,10.46,26.52,3.62
			c7.75-5.33,14.41-12.23,21.57-18.42c4.65-4.03,8.99-8.51,14.05-11.94c8.91-6.05,17.02-3.99,23.01,5.12
			c6.88,10.47,8.83,22.47,9.55,34.5c1.58,26.43-1.5,52.6-7.88,78.18c-7.69,30.83-30.14,49.02-57.44,61.77
			c-33.09,15.45-68.2,18.38-104.14,14.81c-29.62-2.95-57.65-10.73-82.35-27.94c-37.87-26.4-42.86-76.6-10.67-109.92
			c15.52-16.07,26.83-33.98,31.27-56.14c2.93-14.59,0.6-28.48-2.37-42.77c-8.31-39.99,23.48-78.58,64.09-80.05
			c33.88-1.23,61.35,21.96,69.13,50.31c8.26,30.12-4.4,60.81-32.61,77.82C607,129.9,605.86,130.71,602.44,132.95z M554.55,45.23
			c-0.16-5.87-5.81-11.22-11.62-11.03c-6.11,0.21-11.16,5.59-10.87,11.58c0.27,5.6,5.59,10.76,11.11,10.78
			C548.9,56.58,554.71,50.8,554.55,45.23z"/>
		<path d="M469.15,86.24c-1.98-3.13-3.73-5.79-5.36-8.51c-5.43-9.05-11.16-17.95-16.1-27.26c-2.4-4.51-2.36-9.85,1.96-13.7
			c4.4-3.92,9.18-2.46,13.83-0.05c5.02,2.6,10.09,5.08,15.12,7.67c6.76,3.49,13.39,4.46,19.83-0.76c0.53-0.43,1.24-0.69,1.91-0.87
			c0.36-0.1,0.81,0.14,2.07,0.41c-8.76,20.35-6.25,40.84,1.07,62.26c-11.54,0-21.24,0.64-30.78-0.29c-4.24-0.42-8.9-3.27-12.07-6.36
			c-4.98-4.84-3.1-9.26,3.71-10.77C465.66,87.72,466.9,87.08,469.15,86.24z"/>
		<path class="st0" d="M554.55,45.23c0.16,5.57-5.65,11.34-11.38,11.33c-5.52-0.01-10.84-5.17-11.11-10.78
			c-0.29-5.99,4.77-11.37,10.87-11.58C548.74,34.01,554.39,39.37,554.55,45.23z"/>
	</g>
</g>
</svg>
